<svg width="180" height="51" viewBox="0 0 180 51" fill="none" xmlns="http://www.w3.org/2000/svg">
<g clip-path="url(#clip0_2149_14964)">
<path d="M65.8908 12.2598L55.7102 34.9465H59.3168L61.1816 30.5736L65.8826 19.559L70.5999 30.5736L72.4688 34.9465H76.1287L65.8908 12.2598Z" fill="#08090C"/>
<path d="M88.4773 27.824C88.4773 28.7775 88.3134 29.5789 87.9814 30.2242C87.6494 30.8736 87.1904 31.3585 86.6084 31.6791C86.0264 32.0038 85.3379 32.1641 84.551 32.1641C83.4731 32.1641 82.6452 31.8435 82.0632 31.2065C81.4813 30.5694 81.1903 29.6036 81.1903 28.3049V20.5371H77.8254V28.7652C77.8254 30.2036 78.0836 31.3955 78.6041 32.3408C79.1246 33.2861 79.8501 33.9848 80.7845 34.4451C81.7149 34.9054 82.7928 35.1314 84.0141 35.1314C85.1248 35.1314 86.1494 34.8848 87.0797 34.3875C87.7027 34.0587 88.2191 33.619 88.6413 33.0929V34.9424H91.8422V20.5412H88.4773V27.824V27.824Z" fill="#08090C"/>
<path d="M99.4528 22.6499V20.5374H96.252V34.9427H99.6168V27.9558C99.6168 26.4804 99.9938 25.3707 100.748 24.6227C101.502 23.8788 102.514 23.5048 103.789 23.5048C103.916 23.5048 104.039 23.5089 104.166 23.5171C104.293 23.5254 104.424 23.55 104.568 23.5829V20.373C103.187 20.373 102.035 20.6238 101.113 21.1293C100.424 21.5033 99.875 22.0129 99.4569 22.6458L99.4528 22.6499Z" fill="#08090C"/>
<path d="M116.712 21.8769C115.572 20.8782 113.962 20.3809 111.884 20.3809C110.736 20.3809 109.63 20.5288 108.56 20.8247C107.494 21.1206 106.572 21.5645 105.802 22.1605L107.121 24.6141C107.658 24.1661 108.318 23.8126 109.097 23.5619C109.876 23.3112 110.671 23.1838 111.478 23.1838C112.679 23.1838 113.576 23.4592 114.167 24.0058C114.757 24.5565 115.056 25.3251 115.056 26.3115V26.5252H111.343C109.892 26.5252 108.724 26.7142 107.847 27.0924C106.97 27.4705 106.334 27.9842 105.949 28.6295C105.564 29.2788 105.371 30.0063 105.371 30.8159C105.371 31.6256 105.593 32.3859 106.031 33.0435C106.47 33.7011 107.093 34.2107 107.9 34.5806C108.707 34.9505 109.65 35.1355 110.724 35.1355C111.999 35.1355 113.052 34.9012 113.884 34.4327C114.462 34.108 114.908 33.6888 115.24 33.1792V34.9423H118.417V26.4964C118.417 24.4086 117.847 22.8674 116.708 21.8687L116.712 21.8769ZM113.646 32.1147C112.99 32.4928 112.253 32.6818 111.425 32.6818C110.597 32.6818 109.892 32.501 109.408 32.1435C108.925 31.7859 108.683 31.2968 108.683 30.6885C108.683 30.1501 108.88 29.6939 109.273 29.3282C109.667 28.9583 110.437 28.7733 111.589 28.7733H115.06V30.4461C114.773 31.1817 114.302 31.7407 113.646 32.1188V32.1147Z" fill="#08090C"/>
<path d="M135.089 16.8712C133.896 16.3328 132.466 16.0615 130.798 16.0615H123.048V34.9466H126.544V29.4969H130.794C132.462 29.4969 133.892 29.2256 135.085 28.6872C136.278 28.1488 137.196 27.3761 137.843 26.3651C138.491 25.3582 138.811 24.1622 138.811 22.7771C138.811 21.3921 138.487 20.1961 137.843 19.1892C137.196 18.1822 136.278 17.4096 135.085 16.8671L135.089 16.8712ZM134.122 25.5431C133.343 26.2007 132.179 26.5295 130.638 26.5295H126.548V19.0289H130.638C132.179 19.0289 133.343 19.3536 134.122 19.9988C134.901 20.6441 135.294 21.5729 135.294 22.7771C135.294 23.9813 134.905 24.8855 134.122 25.5431V25.5431Z" fill="#08090C"/>
<path d="M152.36 21.3222C151.204 20.6934 149.88 20.377 148.393 20.377C146.905 20.377 145.614 20.6934 144.466 21.3222C143.319 21.9511 142.413 22.8182 141.749 23.9238C141.085 25.0294 140.753 26.3035 140.753 27.7419C140.753 29.1804 141.085 30.4298 141.749 31.5477C142.413 32.6615 143.319 33.541 144.466 34.1781C145.614 34.8151 146.925 35.1357 148.393 35.1357C149.86 35.1357 151.204 34.8151 152.36 34.1781C153.516 33.541 154.422 32.6615 155.077 31.5477C155.733 30.4339 156.061 29.164 156.061 27.7419C156.061 26.3199 155.733 25.0088 155.077 23.9115C154.422 22.8141 153.516 21.9511 152.36 21.3222ZM152.118 30.1462C151.749 30.8285 151.245 31.3504 150.598 31.7121C149.954 32.0697 149.216 32.2505 148.393 32.2505C147.569 32.2505 146.864 32.0697 146.229 31.7121C145.593 31.3504 145.085 30.8326 144.708 30.1462C144.331 29.464 144.143 28.6626 144.143 27.746C144.143 26.8295 144.331 26.0075 144.708 25.3335C145.085 24.6595 145.593 24.1416 146.229 23.7841C146.864 23.4265 147.598 23.2457 148.421 23.2457C149.245 23.2457 149.954 23.4265 150.602 23.7841C151.249 24.1457 151.753 24.6595 152.122 25.3335C152.491 26.0075 152.676 26.8131 152.676 27.746C152.676 28.679 152.491 29.464 152.122 30.1462H152.118Z" fill="#08090C"/>
<path d="M169.713 21.3222C168.557 20.6934 167.233 20.377 165.745 20.377C164.258 20.377 162.967 20.6934 161.819 21.3222C160.672 21.9511 159.766 22.8182 159.102 23.9238C158.438 25.0294 158.106 26.3035 158.106 27.7419C158.106 29.1804 158.438 30.4298 159.102 31.5477C159.766 32.6615 160.672 33.541 161.819 34.1781C162.967 34.8151 164.278 35.1357 165.745 35.1357C167.213 35.1357 168.557 34.8151 169.713 34.1781C170.869 33.541 171.774 32.6615 172.43 31.5477C173.086 30.4339 173.414 29.164 173.414 27.7419C173.414 26.3199 173.086 25.0088 172.43 23.9115C171.774 22.8141 170.869 21.9511 169.713 21.3222ZM169.471 30.1462C169.102 30.8285 168.598 31.3504 167.95 31.7121C167.307 32.0697 166.569 32.2505 165.745 32.2505C164.922 32.2505 164.217 32.0697 163.581 31.7121C162.946 31.3504 162.438 30.8326 162.061 30.1462C161.684 29.464 161.495 28.6626 161.495 27.746C161.495 26.8295 161.684 26.0075 162.061 25.3335C162.438 24.6595 162.946 24.1416 163.581 23.7841C164.217 23.4265 164.95 23.2457 165.774 23.2457C166.598 23.2457 167.307 23.4265 167.955 23.7841C168.602 24.1457 169.106 24.6595 169.475 25.3335C169.844 26.0075 170.028 26.8131 170.028 27.746C170.028 28.679 169.844 29.464 169.475 30.1462H169.471Z" fill="#08090C"/>
<path d="M180.004 14.9268H176.639V34.9462H180.004V14.9268Z" fill="#08090C"/>
<path d="M25.4268 7.06934C15.2913 7.06934 7.04932 15.3385 7.04932 25.4982C7.04932 35.6579 15.2954 43.9271 25.4268 43.9271C35.5582 43.9271 43.8042 35.6579 43.8042 25.4982C43.8042 15.3385 35.5623 7.06934 25.4268 7.06934ZM25.4268 40.8817C16.9717 40.8817 10.0904 33.9811 10.0904 25.5023C10.0904 17.0236 16.9717 10.1189 25.4268 10.1189C33.8819 10.1189 40.7632 17.0195 40.7632 25.4982C40.7632 33.977 33.8819 40.8775 25.4268 40.8775V40.8817Z" fill="#08BDDC"/>
<path d="M25.4268 47.6418C13.2503 47.6418 3.34839 37.7081 3.34839 25.5017C3.34839 13.2952 13.2544 3.35742 25.4268 3.35742C37.5992 3.35742 47.5051 13.2911 47.5051 25.4976C47.5051 37.704 37.5992 47.6377 25.4268 47.6377V47.6418ZM25.4268 4.22051C13.7257 4.22051 4.20906 13.7679 4.20906 25.4976C4.20906 37.2273 13.7298 46.7746 25.4268 46.7746C37.1238 46.7746 46.6445 37.2273 46.6445 25.4976C46.6445 13.7679 37.1278 4.22051 25.4268 4.22051V4.22051Z" fill="#08BDDC"/>
<path d="M25.4268 51C11.406 51 0 39.558 0 25.4979C0 11.4379 11.406 0 25.4268 0C39.4476 0 50.8536 11.4379 50.8536 25.4979C50.8536 39.558 39.4476 50.9959 25.4268 50.9959V51ZM25.4268 0.283584C11.5617 0.283584 0.282793 11.5941 0.282793 25.4979C0.282793 39.4018 11.5617 50.7164 25.4309 50.7164C39.3001 50.7164 50.579 39.4059 50.579 25.4979C50.579 11.59 39.296 0.283584 25.4268 0.283584Z" fill="#08BDDC"/>
<path d="M25.4022 14.0967L16.3733 34.2106H19.5701L21.2259 30.335L25.394 20.5657L29.5785 30.335L31.2384 34.2106H34.4803L25.4022 14.0967Z" fill="#08BDDC"/>
</g>
<defs>
<clipPath id="clip0_2149_14964">
<rect width="180" height="51" fill="white"/>
</clipPath>
</defs>
</svg>
    