<svg width="22" height="18" viewBox="0 0 22 18" fill="none" xmlns="http://www.w3.org/2000/svg">
<path d="M17.735 0.342098L21.8598 5.84189C21.9601 5.9708 22.0066 6.1194 21.9995 6.28768C21.9923 6.45596 21.9314 6.60098 21.8168 6.72272L11.5049 17.7223C11.376 17.8655 11.2077 17.9371 11.0001 17.9371C10.7924 17.9371 10.6241 17.8655 10.4952 17.7223L0.183322 6.72273C0.0687464 6.60098 0.00787766 6.45596 0.000716151 6.28768C-0.00644536 6.1194 0.0401044 5.9708 0.140366 5.84189L4.26513 0.34211C4.39402 0.155907 4.57663 0.0628052 4.81294 0.0628052H17.1872C17.4235 0.0628052 17.6061 0.155895 17.735 0.342098Z" fill="url(#paint0_linear_3745_33585)"/>
<defs>
<linearGradient id="paint0_linear_3745_33585" x1="0" y1="0.0628052" x2="17.4957" y2="21.5969" gradientUnits="userSpaceOnUse">
<stop stop-color="#A7D5FF"/>
<stop offset="1" stop-color="#0071D9"/>
</linearGradient>
</defs>
</svg>
