<svg width="174" height="49" viewBox="0 0 174 49" fill="none" xmlns="http://www.w3.org/2000/svg">
<path d="M24.006 0.5C19.2599 0.5 14.6191 1.90964 10.6693 4.54587C6.72413 7.18209 3.64396 10.9305 1.82698 15.315C0.00999975 19.6996 -0.465983 24.5281 0.463102 29.1826C1.38761 33.8372 3.676 38.1165 7.03077 41.4713C10.3855 44.826 14.6648 47.1144 19.3194 48.0389C23.974 48.9634 28.8025 48.492 33.187 46.6751C37.5716 44.8581 41.32 41.7825 43.9607 37.8373C46.597 33.8921 48.0066 29.2513 48.0066 24.5052C48.002 18.1435 45.4665 12.0426 40.9675 7.53908C36.4686 3.04011 30.3677 0.509154 24.0014 0.5H24.006ZM24.006 35.407C21.8458 35.407 19.7359 34.7663 17.9418 33.5672C16.1477 32.3681 14.7472 30.6655 13.9234 28.67C13.0996 26.6746 12.8799 24.4823 13.301 22.3632C13.722 20.2442 14.7609 18.3036 16.2896 16.775C17.8136 15.2509 19.7588 14.212 21.8778 13.791C23.9923 13.3699 26.1891 13.585 28.1846 14.4134C30.1801 15.2418 31.8827 16.6377 33.0818 18.4318C34.2809 20.2259 34.9216 22.3358 34.917 24.496C34.917 27.3885 33.7637 30.1621 31.7179 32.2079C29.6721 34.2537 26.8985 35.4025 24.006 35.407ZM2.49519 24.5006C2.49977 19.013 4.6005 13.736 8.37177 9.74508C12.1384 5.75413 17.2873 3.35133 22.7657 3.02638V11.1639C19.443 11.4705 16.3491 13.0083 14.1019 15.4752C11.8501 17.9421 10.6052 21.1596 10.6052 24.5006C10.6052 27.8416 11.8547 31.0591 14.1019 33.526C16.3537 35.9929 19.443 37.5307 22.7657 37.8373V45.9748C17.2873 45.6544 12.1384 43.2516 8.37177 39.2607C4.60508 35.2697 2.50434 29.9927 2.49519 24.5052V24.5006ZM25.2509 45.9702V37.8327C28.5736 37.5261 31.6675 35.9883 33.9147 33.5214C36.1665 31.0545 37.4114 27.8371 37.4114 24.496C37.4114 21.155 36.1665 17.9375 33.9147 15.4706C31.663 13.0037 28.5736 11.466 25.2509 11.1593V3.02181C30.7293 3.34218 35.8736 5.74498 39.6357 9.74051C43.3978 13.7315 45.494 19.0085 45.494 24.496C45.494 29.9836 43.3978 35.2606 39.6357 39.2515C35.8736 43.2425 30.7247 45.6453 25.2509 45.9657V45.9702Z" fill="#33CED2"/>
<path fill-rule="evenodd" clip-rule="evenodd" d="M173.364 8.90759C173.364 9.82295 172.646 10.5415 171.712 10.5415C170.779 10.5415 170.051 9.82295 170.051 8.90759C170.051 7.99224 170.788 7.29199 171.712 7.29199C172.637 7.29199 173.364 8.01054 173.364 8.90759ZM170.458 8.90759C170.458 9.62615 170.989 10.1982 171.717 10.1982C172.445 10.1982 172.948 9.62615 172.948 8.91675C172.948 8.20735 172.426 7.61695 171.708 7.61695C170.989 7.61695 170.458 8.19819 170.458 8.90759ZM171.451 9.7543H171.076V8.1387C171.223 8.11124 171.428 8.08835 171.699 8.08835C172.005 8.08835 172.142 8.1387 172.261 8.20735C172.348 8.276 172.417 8.40415 172.417 8.55976C172.417 8.73825 172.28 8.87556 172.083 8.93506V8.95336C172.239 9.01286 172.33 9.13186 172.376 9.34697C172.426 9.59411 172.454 9.69023 172.495 9.74972H172.092C172.053 9.70311 172.027 9.60311 171.994 9.47174C171.985 9.43544 171.975 9.39675 171.964 9.35612C171.937 9.17763 171.836 9.09982 171.63 9.09982H171.451V9.74972V9.7543ZM171.461 8.83894H171.639C171.845 8.83894 172.014 8.77029 172.014 8.60095C172.014 8.45449 171.904 8.35381 171.671 8.35381C171.57 8.35381 171.502 8.36296 171.465 8.37211V8.83437L171.461 8.83894ZM91.0649 41.6224L89.2845 36.4964H89.2525C89.2983 37.2561 89.3257 37.9701 89.3257 38.6383V41.6224H88.4149V35.4803H89.8292L91.5363 40.3637H91.5638L93.3212 35.4803H94.74V41.6224H93.7743V38.588C93.7743 38.2813 93.7835 37.8831 93.7972 37.3934C93.811 36.9037 93.8247 36.6062 93.8384 36.5009H93.8064L91.9619 41.6224H91.074H91.0649ZM101.006 39.9152L101.619 41.6224H101.623H102.69L100.392 35.4574H99.2984L97.0009 41.6224H98.0581L98.6576 39.9152H101.006ZM100.163 37.3797L100.74 39.0502H100.736H98.946L99.4998 37.4483C99.6462 37.041 99.7561 36.6611 99.8339 36.3179C99.8659 36.4323 99.9163 36.6062 99.9895 36.8488C100.063 37.0914 100.122 37.2698 100.163 37.3797ZM105.962 39.1738V41.6269H104.96V35.4849H106.694C107.486 35.4849 108.072 35.6314 108.452 35.9288C108.832 36.2263 109.024 36.6749 109.024 37.2744C109.024 38.0387 108.626 38.5834 107.829 38.9083L109.564 41.6269H108.42L106.951 39.1738H105.962ZM105.962 38.3408H106.658C107.125 38.3408 107.463 38.2539 107.674 38.0799C107.884 37.906 107.99 37.6497 107.99 37.3065C107.99 36.9632 107.875 36.7115 107.651 36.5604C107.422 36.4094 107.083 36.3316 106.626 36.3316H105.962V38.3408ZM115.445 41.6224H116.608H116.612L114.242 38.176C114.709 37.6406 115.477 36.7435 116.548 35.4849H115.404L113.747 37.4483C113.477 37.7596 113.203 38.0845 112.928 38.4186V35.4849H111.926V41.6269H112.928V39.3294L113.519 38.8443L115.445 41.6224ZM122.352 41.6224H118.878V35.4803H122.352V36.327H119.88V37.9975H122.196V38.8397H119.88V40.7665H122.352V41.6178V41.6224ZM126.26 41.6224H127.258V36.3408H129.065V35.4803H124.452V36.3408H126.26V41.6224ZM135.011 39.9564C135.011 40.501 134.814 40.9313 134.421 41.2425C134.027 41.5537 133.482 41.7093 132.787 41.7093C132.091 41.7093 131.523 41.5995 131.079 41.3844V40.437C131.359 40.5697 131.656 40.6704 131.972 40.7482C132.288 40.826 132.581 40.8626 132.851 40.8626C133.249 40.8626 133.542 40.7848 133.729 40.6338C133.917 40.4827 134.013 40.2814 134.013 40.0251C134.013 39.7962 133.926 39.5994 133.752 39.4392C133.578 39.2791 133.221 39.0914 132.677 38.8717C132.118 38.6429 131.72 38.3866 131.491 38.0937C131.263 37.8008 131.148 37.4529 131.148 37.0456C131.148 36.533 131.331 36.1302 131.693 35.8373C132.059 35.5444 132.544 35.3979 133.157 35.3979C133.771 35.3979 134.329 35.5261 134.915 35.7824L134.594 36.6016C134.05 36.3728 133.56 36.2584 133.134 36.2584C132.81 36.2584 132.562 36.327 132.393 36.4689C132.224 36.6108 132.141 36.7984 132.141 37.0319C132.141 37.192 132.173 37.3293 132.242 37.4392C132.311 37.5536 132.42 37.6589 132.576 37.7596C132.732 37.8602 133.006 37.993 133.409 38.1577C133.858 38.3454 134.192 38.5193 134.402 38.6841C134.613 38.8488 134.768 39.0319 134.864 39.2333C134.961 39.4392 135.011 39.6772 135.011 39.9564ZM67.4302 29.9607C70.5287 29.9607 73.3617 28.7525 75.3984 26.8028L75.3938 26.7982L73.9201 25.4114C72.2358 26.9492 69.9658 27.892 67.4257 27.892C62.707 27.892 58.8122 24.0292 58.8122 19.274C58.8122 14.5187 62.7024 10.6559 67.4257 10.6559C69.8193 10.6559 71.9704 11.6308 73.5357 13.196L74.9819 11.7223C73.0368 9.80463 70.3823 8.59636 67.4302 8.59636C61.5582 8.59636 56.748 13.4065 56.748 19.2785C56.748 25.1505 61.5582 29.9607 67.4302 29.9607ZM97.1382 8.94878V21.6951C97.1382 26.2398 93.4219 29.9562 88.8772 29.9562C84.3324 29.9562 80.6161 26.2398 80.6161 21.6951V8.94878H82.6802V21.6951C82.6802 25.1185 85.4537 27.892 88.8772 27.892C92.3006 27.892 95.0741 25.1185 95.0741 21.6951V8.94878H97.1382ZM111.564 29.6038C117.226 29.6038 121.889 24.9721 121.889 19.2786V19.274C121.889 13.6125 117.23 8.94878 111.564 8.94878H104.186V29.6038H111.564ZM111.564 11.0175C116.104 11.0175 119.825 14.7338 119.825 19.2786C119.825 23.8233 116.109 27.5396 111.564 27.5396H106.251V11.0175H111.564ZM147.995 19.2785C147.995 25.1505 143.185 29.9607 137.313 29.9607C131.441 29.9607 126.631 25.1505 126.631 19.2785C126.631 13.4065 131.441 8.59636 137.313 8.59636C143.185 8.59636 147.995 13.4065 147.995 19.2785ZM145.931 19.2785C145.931 14.5279 142.064 10.6605 137.313 10.6605C132.562 10.6605 128.695 14.5233 128.695 19.2785C128.695 24.0338 132.558 27.8966 137.313 27.8966C142.068 27.8966 145.931 24.0292 145.931 19.2785ZM167.208 23.6494V23.5899V23.5853C167.208 21.9102 166.645 20.615 165.483 19.6447C164.352 18.7064 162.654 18.0291 160.123 17.4707C158.041 17.0268 156.7 16.5279 155.927 15.91C155.3 15.4112 155.062 14.8528 155.062 13.942V13.8825C155.062 13.0267 155.451 12.2349 156.165 11.617C156.938 10.9442 158.069 10.5598 159.318 10.5598C161.162 10.5598 162.92 11.2097 164.526 12.4729L165.835 10.8847C164.879 10.1204 163.899 9.56206 162.856 9.15015C161.693 8.74281 160.503 8.50482 159.313 8.50482C157.556 8.50482 155.949 9.06318 154.759 10.0609C154.197 10.5598 153.748 11.1502 153.451 11.7955C153.126 12.4408 152.975 13.1457 152.975 13.8825V13.942C152.975 15.4707 153.51 16.6469 154.613 17.5302C155.652 18.354 157.231 18.9719 159.643 19.4708C161.817 19.9422 163.277 20.528 164.11 21.2054C164.824 21.7958 165.121 22.5326 165.121 23.5899V23.6494C165.121 26.0888 163.039 27.7364 159.972 27.7364C157.506 27.7364 155.332 26.7936 153.515 24.972L152.027 26.4137C153.13 27.503 154.32 28.3543 155.629 28.9127C156.97 29.5031 158.43 29.796 159.977 29.796C162.059 29.796 163.876 29.2101 165.185 28.0614C166.494 26.9401 167.208 25.384 167.208 23.6494Z" fill="white"/>
</svg>
