<svg width="174" height="48" viewBox="0 0 174 48" fill="none" xmlns="http://www.w3.org/2000/svg">
<path d="M24.006 0C19.2599 0 14.6191 1.40964 10.6693 4.04587C6.72413 6.68209 3.64396 10.4305 1.82698 14.815C0.00999975 19.1996 -0.465983 24.0281 0.463102 28.6826C1.38761 33.3372 3.676 37.6165 7.03077 40.9713C10.3855 44.326 14.6648 46.6144 19.3194 47.5389C23.974 48.4634 28.8025 47.992 33.187 46.1751C37.5716 44.3581 41.32 41.2825 43.9607 37.3373C46.597 33.3921 48.0066 28.7513 48.0066 24.0052C48.002 17.6435 45.4665 11.5426 40.9675 7.03908C36.4686 2.54011 30.3677 0.00915354 24.0014 0H24.006ZM24.006 34.907C21.8458 34.907 19.7359 34.2663 17.9418 33.0672C16.1477 31.8681 14.7472 30.1655 13.9234 28.17C13.0996 26.1746 12.8799 23.9823 13.301 21.8632C13.722 19.7442 14.7609 17.8036 16.2896 16.275C17.8136 14.7509 19.7588 13.712 21.8778 13.291C23.9923 12.8699 26.1891 13.085 28.1846 13.9134C30.1801 14.7418 31.8827 16.1377 33.0818 17.9318C34.2809 19.7259 34.9216 21.8358 34.917 23.996C34.917 26.8885 33.7637 29.6621 31.7179 31.7079C29.6721 33.7537 26.8985 34.9025 24.006 34.907ZM2.49519 24.0006C2.49977 18.513 4.6005 13.236 8.37177 9.24508C12.1384 5.25413 17.2873 2.85133 22.7657 2.52638V10.6639C19.443 10.9705 16.3491 12.5083 14.1019 14.9752C11.8501 17.4421 10.6052 20.6596 10.6052 24.0006C10.6052 27.3416 11.8547 30.5591 14.1019 33.026C16.3537 35.4929 19.443 37.0307 22.7657 37.3373V45.4748C17.2873 45.1544 12.1384 42.7516 8.37177 38.7607C4.60508 34.7697 2.50434 29.4927 2.49519 24.0052V24.0006ZM25.2509 45.4702V37.3327C28.5736 37.0261 31.6675 35.4883 33.9147 33.0214C36.1665 30.5545 37.4114 27.3371 37.4114 23.996C37.4114 20.655 36.1665 17.4375 33.9147 14.9706C31.663 12.5037 28.5736 10.966 25.2509 10.6593V2.52181C30.7293 2.84218 35.8736 5.24498 39.6357 9.24051C43.3978 13.2315 45.494 18.5085 45.494 23.996C45.494 29.4836 43.3978 34.7606 39.6357 38.7515C35.8736 42.7425 30.7247 45.1453 25.2509 45.4657V45.4702Z" fill="#33CED2"/>
<path fill-rule="evenodd" clip-rule="evenodd" d="M173.364 8.40759C173.364 9.32295 172.646 10.0415 171.712 10.0415C170.779 10.0415 170.051 9.32295 170.051 8.40759C170.051 7.49224 170.788 6.79199 171.712 6.79199C172.637 6.79199 173.364 7.51054 173.364 8.40759ZM170.458 8.40759C170.458 9.12615 170.989 9.69825 171.717 9.69825C172.445 9.69825 172.948 9.12615 172.948 8.41675C172.948 7.70735 172.426 7.11695 171.708 7.11695C170.989 7.11695 170.458 7.69819 170.458 8.40759ZM171.451 9.2543H171.076V7.6387C171.223 7.61124 171.428 7.58835 171.699 7.58835C172.005 7.58835 172.142 7.6387 172.261 7.70735C172.348 7.776 172.417 7.90415 172.417 8.05976C172.417 8.23825 172.28 8.37556 172.083 8.43506V8.45336C172.239 8.51286 172.33 8.63186 172.376 8.84697C172.426 9.09411 172.454 9.19023 172.495 9.24972H172.092C172.053 9.20311 172.027 9.10311 171.994 8.97174C171.985 8.93544 171.975 8.89675 171.964 8.85612C171.937 8.67763 171.836 8.59982 171.63 8.59982H171.451V9.24972V9.2543ZM171.461 8.33894H171.639C171.845 8.33894 172.014 8.27029 172.014 8.10095C172.014 7.95449 171.904 7.85381 171.671 7.85381C171.57 7.85381 171.502 7.86296 171.465 7.87211V8.33437L171.461 8.33894ZM91.0649 41.1224L89.2845 35.9964H89.2525C89.2983 36.7561 89.3257 37.4701 89.3257 38.1383V41.1224H88.4149V34.9803H89.8292L91.5363 39.8637H91.5638L93.3212 34.9803H94.74V41.1224H93.7743V38.088C93.7743 37.7813 93.7835 37.3831 93.7972 36.8934C93.811 36.4037 93.8247 36.1062 93.8384 36.0009H93.8064L91.9619 41.1224H91.074H91.0649ZM101.006 39.4152L101.619 41.1224H101.623H102.69L100.392 34.9574H99.2984L97.0009 41.1224H98.0581L98.6576 39.4152H101.006ZM100.163 36.8797L100.74 38.5502H100.736H98.946L99.4998 36.9483C99.6462 36.541 99.7561 36.1611 99.8339 35.8179C99.8659 35.9323 99.9163 36.1062 99.9895 36.3488C100.063 36.5914 100.122 36.7698 100.163 36.8797ZM105.962 38.6738V41.1269H104.96V34.9849H106.694C107.486 34.9849 108.072 35.1314 108.452 35.4288C108.832 35.7263 109.024 36.1749 109.024 36.7744C109.024 37.5387 108.626 38.0834 107.829 38.4083L109.564 41.1269H108.42L106.951 38.6738H105.962ZM105.962 37.8408H106.658C107.125 37.8408 107.463 37.7539 107.674 37.5799C107.884 37.406 107.99 37.1497 107.99 36.8065C107.99 36.4632 107.875 36.2115 107.651 36.0604C107.422 35.9094 107.083 35.8316 106.626 35.8316H105.962V37.8408ZM115.445 41.1224H116.608H116.612L114.242 37.676C114.709 37.1406 115.477 36.2435 116.548 34.9849H115.404L113.747 36.9483C113.477 37.2596 113.203 37.5845 112.928 37.9186V34.9849H111.926V41.1269H112.928V38.8294L113.519 38.3443L115.445 41.1224ZM122.352 41.1224H118.878V34.9803H122.352V35.827H119.88V37.4975H122.196V38.3397H119.88V40.2665H122.352V41.1178V41.1224ZM126.26 41.1224H127.258V35.8408H129.065V34.9803H124.452V35.8408H126.26V41.1224ZM135.011 39.4564C135.011 40.001 134.814 40.4313 134.421 40.7425C134.027 41.0537 133.482 41.2093 132.787 41.2093C132.091 41.2093 131.523 41.0995 131.079 40.8844V39.937C131.359 40.0697 131.656 40.1704 131.972 40.2482C132.288 40.326 132.581 40.3626 132.851 40.3626C133.249 40.3626 133.542 40.2848 133.729 40.1338C133.917 39.9827 134.013 39.7814 134.013 39.5251C134.013 39.2962 133.926 39.0994 133.752 38.9392C133.578 38.7791 133.221 38.5914 132.677 38.3717C132.118 38.1429 131.72 37.8866 131.491 37.5937C131.263 37.3008 131.148 36.9529 131.148 36.5456C131.148 36.033 131.331 35.6302 131.693 35.3373C132.059 35.0444 132.544 34.8979 133.157 34.8979C133.771 34.8979 134.329 35.0261 134.915 35.2824L134.594 36.1016C134.05 35.8728 133.56 35.7584 133.134 35.7584C132.81 35.7584 132.562 35.827 132.393 35.9689C132.224 36.1108 132.141 36.2984 132.141 36.5319C132.141 36.692 132.173 36.8293 132.242 36.9392C132.311 37.0536 132.42 37.1589 132.576 37.2596C132.732 37.3602 133.006 37.493 133.409 37.6577C133.858 37.8454 134.192 38.0193 134.402 38.1841C134.613 38.3488 134.768 38.5319 134.864 38.7333C134.961 38.9392 135.011 39.1772 135.011 39.4564ZM67.4302 29.4607C70.5287 29.4607 73.3617 28.2525 75.3984 26.3028L75.3938 26.2982L73.9201 24.9114C72.2358 26.4492 69.9658 27.392 67.4257 27.392C62.707 27.392 58.8122 23.5292 58.8122 18.774C58.8122 14.0187 62.7024 10.1559 67.4257 10.1559C69.8193 10.1559 71.9704 11.1308 73.5357 12.696L74.9819 11.2223C73.0368 9.30463 70.3823 8.09636 67.4302 8.09636C61.5582 8.09636 56.748 12.9065 56.748 18.7785C56.748 24.6505 61.5582 29.4607 67.4302 29.4607ZM97.1382 8.44878V21.1951C97.1382 25.7398 93.4219 29.4562 88.8772 29.4562C84.3324 29.4562 80.6161 25.7398 80.6161 21.1951V8.44878H82.6802V21.1951C82.6802 24.6185 85.4537 27.392 88.8772 27.392C92.3006 27.392 95.0741 24.6185 95.0741 21.1951V8.44878H97.1382ZM111.564 29.1038C117.226 29.1038 121.889 24.4721 121.889 18.7786V18.774C121.889 13.1125 117.23 8.44878 111.564 8.44878H104.186V29.1038H111.564ZM111.564 10.5175C116.104 10.5175 119.825 14.2338 119.825 18.7786C119.825 23.3233 116.109 27.0396 111.564 27.0396H106.251V10.5175H111.564ZM147.995 18.7785C147.995 24.6505 143.185 29.4607 137.313 29.4607C131.441 29.4607 126.631 24.6505 126.631 18.7785C126.631 12.9065 131.441 8.09636 137.313 8.09636C143.185 8.09636 147.995 12.9065 147.995 18.7785ZM145.931 18.7785C145.931 14.0279 142.064 10.1605 137.313 10.1605C132.562 10.1605 128.695 14.0233 128.695 18.7785C128.695 23.5338 132.558 27.3966 137.313 27.3966C142.068 27.3966 145.931 23.5292 145.931 18.7785ZM167.208 23.1494V23.0899V23.0853C167.208 21.4102 166.645 20.115 165.483 19.1447C164.352 18.2064 162.654 17.5291 160.123 16.9707C158.041 16.5268 156.7 16.0279 155.927 15.41C155.3 14.9112 155.062 14.3528 155.062 13.442V13.3825C155.062 12.5267 155.451 11.7349 156.165 11.117C156.938 10.4442 158.069 10.0598 159.318 10.0598C161.162 10.0598 162.92 10.7097 164.526 11.9729L165.835 10.3847C164.879 9.62042 163.899 9.06206 162.856 8.65015C161.693 8.24281 160.503 8.00482 159.313 8.00482C157.556 8.00482 155.949 8.56318 154.759 9.56092C154.197 10.0598 153.748 10.6502 153.451 11.2955C153.126 11.9408 152.975 12.6457 152.975 13.3825V13.442C152.975 14.9707 153.51 16.1469 154.613 17.0302C155.652 17.854 157.231 18.4719 159.643 18.9708C161.817 19.4422 163.277 20.028 164.11 20.7054C164.824 21.2958 165.121 22.0326 165.121 23.0899V23.1494C165.121 25.5888 163.039 27.2364 159.972 27.2364C157.506 27.2364 155.332 26.2936 153.515 24.472L152.027 25.9137C153.13 27.003 154.32 27.8543 155.629 28.4127C156.97 29.0031 158.43 29.296 159.977 29.296C162.059 29.296 163.876 28.7101 165.185 27.5614C166.494 26.4401 167.208 24.884 167.208 23.1494Z" fill="#1D1D1B"/>
</svg>
