<svg width="24" height="25" viewBox="0 0 24 25" fill="none" xmlns="http://www.w3.org/2000/svg">
<circle cx="12" cy="12.5" r="12" fill="url(#paint0_linear_3261_29829)"/>
<path d="M12 2.5C6.47695 2.5 2 6.97695 2 12.5C2 18.0231 6.47695 22.5 12 22.5C17.5231 22.5 22 18.0231 22 12.5C22 6.97695 17.5231 2.5 12 2.5ZM12 17.0127C9.51222 17.0127 7.48725 14.9886 7.48725 12.5C7.48725 10.0114 9.51135 7.98725 12 7.98725C14.4886 7.98725 16.5127 10.0114 16.5127 12.5C16.5127 14.9886 14.4886 17.0127 12 17.0127ZM3.10636 12.5C3.10636 7.78205 6.80004 3.91198 11.4473 3.62557V6.90884C8.60321 7.18652 6.38089 9.58348 6.38089 12.5009C6.38089 15.4183 8.60321 17.8144 11.4473 18.0929V21.3762C6.80004 21.0898 3.10636 17.2197 3.10636 12.5017V12.5ZM12.5527 21.3744V18.0912C15.3968 17.8135 17.6191 15.4165 17.6191 12.4991C17.6191 9.58173 15.3968 7.18564 12.5527 6.90709V3.62557C17.2 3.91198 20.8936 7.78205 20.8936 12.5C20.8936 17.218 17.2 21.088 12.5527 21.3744Z" fill="white"/>
<defs>
<linearGradient id="paint0_linear_3261_29829" x1="3.5145" y1="20.9855" x2="20.4855" y2="4.0145" gradientUnits="userSpaceOnUse">
<stop stop-color="#4C80E9"/>
<stop offset="1" stop-color="#91D2F5"/>
</linearGradient>
</defs>
</svg>
