<svg width="180" height="51" viewBox="0 0 180 51" fill="none" xmlns="http://www.w3.org/2000/svg">
<g clip-path="url(#clip0_1960_12098)">
<path d="M65.8905 12.2598L55.71 34.9465H59.3166L61.1814 30.5736L65.8823 19.559L70.5996 30.5736L72.4685 34.9465H76.1285L65.8905 12.2598Z" fill="white"/>
<path d="M88.4771 27.824C88.4771 28.7775 88.3131 29.5789 87.9812 30.2242C87.6492 30.8736 87.1902 31.3585 86.6082 31.6791C86.0262 32.0038 85.3377 32.1641 84.5508 32.1641C83.4729 32.1641 82.645 31.8435 82.063 31.2065C81.481 30.5694 81.19 29.6036 81.19 28.3049V20.5371H77.8252V28.7652C77.8252 30.2036 78.0834 31.3955 78.6039 32.3408C79.1244 33.2861 79.8498 33.9848 80.7843 34.4451C81.7146 34.9054 82.7925 35.1314 84.0139 35.1314C85.1245 35.1314 86.1492 34.8848 87.0795 34.3875C87.7025 34.0587 88.2189 33.619 88.641 33.0929V34.9424H91.8419V20.5412H88.4771V27.824Z" fill="white"/>
<path d="M99.4528 22.6499V20.5374H96.252V34.9427H99.6168V27.9558C99.6168 26.4804 99.9938 25.3707 100.748 24.6227C101.502 23.8788 102.514 23.5048 103.789 23.5048C103.916 23.5048 104.039 23.5089 104.166 23.5171C104.293 23.5254 104.424 23.55 104.568 23.5829V20.373C103.187 20.373 102.035 20.6238 101.113 21.1293C100.424 21.5033 99.875 22.0129 99.4569 22.6458L99.4528 22.6499Z" fill="white"/>
<path d="M116.712 21.8769C115.572 20.8782 113.961 20.3809 111.884 20.3809C110.736 20.3809 109.629 20.5288 108.56 20.8247C107.494 21.1206 106.572 21.5645 105.801 22.1605L107.121 24.6141C107.658 24.1661 108.318 23.8126 109.097 23.5619C109.875 23.3112 110.67 23.1838 111.478 23.1838C112.679 23.1838 113.576 23.4592 114.166 24.0058C114.757 24.5565 115.056 25.3251 115.056 26.3115V26.5252H111.343C109.892 26.5252 108.724 26.7142 107.847 27.0924C106.969 27.4705 106.334 27.9842 105.949 28.6295C105.564 29.2788 105.371 30.0063 105.371 30.8159C105.371 31.6256 105.592 32.3859 106.031 33.0435C106.469 33.7011 107.092 34.2107 107.9 34.5806C108.707 34.9505 109.65 35.1355 110.724 35.1355C111.998 35.1355 113.052 34.9012 113.884 34.4327C114.461 34.108 114.908 33.6888 115.24 33.1792V34.9423H118.416V26.4964C118.416 24.4086 117.847 22.8674 116.707 21.8687L116.712 21.8769ZM113.646 32.1147C112.99 32.4928 112.252 32.6818 111.425 32.6818C110.597 32.6818 109.892 32.501 109.408 32.1435C108.924 31.7859 108.683 31.2968 108.683 30.6885C108.683 30.1501 108.879 29.6939 109.273 29.3282C109.666 28.9583 110.437 28.7733 111.588 28.7733H115.06V30.4461C114.773 31.1817 114.302 31.7407 113.646 32.1188V32.1147Z" fill="white"/>
<path d="M135.089 16.8722C133.896 16.3338 132.466 16.0625 130.798 16.0625H123.048V34.9476H126.544V29.4978H130.794C132.462 29.4978 133.892 29.2266 135.085 28.6882C136.278 28.1498 137.196 27.3771 137.843 26.3661C138.491 25.3591 138.811 24.1632 138.811 22.7781C138.811 21.3931 138.487 20.1971 137.843 19.1901C137.196 18.1832 136.278 17.4106 135.085 16.868L135.089 16.8722ZM134.122 25.5441C133.343 26.2017 132.179 26.5305 130.638 26.5305H126.548V19.0299H130.638C132.179 19.0299 133.343 19.3545 134.122 19.9998C134.901 20.6451 135.294 21.5739 135.294 22.7781C135.294 23.9823 134.905 24.8865 134.122 25.5441Z" fill="white"/>
<path d="M152.36 21.3222C151.204 20.6934 149.88 20.377 148.392 20.377C146.905 20.377 145.614 20.6934 144.466 21.3222C143.319 21.9511 142.413 22.8182 141.749 23.9238C141.085 25.0294 140.753 26.3035 140.753 27.7419C140.753 29.1804 141.085 30.4298 141.749 31.5477C142.413 32.6615 143.319 33.541 144.466 34.1781C145.614 34.8151 146.925 35.1357 148.392 35.1357C149.86 35.1357 151.204 34.8151 152.36 34.1781C153.516 33.541 154.421 32.6615 155.077 31.5477C155.733 30.4339 156.061 29.164 156.061 27.7419C156.061 26.3199 155.733 25.0088 155.077 23.9115C154.421 22.8141 153.516 21.9511 152.36 21.3222ZM152.118 30.1462C151.749 30.8285 151.245 31.3504 150.597 31.7121C149.954 32.0697 149.216 32.2505 148.392 32.2505C147.569 32.2505 146.864 32.0697 146.228 31.7121C145.593 31.3504 145.085 30.8326 144.708 30.1462C144.331 29.464 144.142 28.6626 144.142 27.746C144.142 26.8295 144.331 26.0075 144.708 25.3335C145.085 24.6595 145.593 24.1416 146.228 23.7841C146.864 23.4265 147.597 23.2457 148.421 23.2457C149.245 23.2457 149.954 23.4265 150.602 23.7841C151.249 24.1457 151.753 24.6595 152.122 25.3335C152.491 26.0075 152.675 26.8131 152.675 27.746C152.675 28.679 152.491 29.464 152.122 30.1462H152.118Z" fill="white"/>
<path d="M169.713 21.3222C168.558 20.6934 167.234 20.377 165.746 20.377C164.258 20.377 162.967 20.6934 161.82 21.3222C160.672 21.9511 159.766 22.8182 159.102 23.9238C158.438 25.0294 158.106 26.3035 158.106 27.7419C158.106 29.1804 158.438 30.4298 159.102 31.5477C159.766 32.6615 160.672 33.541 161.82 34.1781C162.967 34.8151 164.279 35.1357 165.746 35.1357C167.213 35.1357 168.558 34.8151 169.713 34.1781C170.869 33.541 171.775 32.6615 172.431 31.5477C173.086 30.4339 173.414 29.164 173.414 27.7419C173.414 26.3199 173.086 25.0088 172.431 23.9115C171.775 22.8141 170.869 21.9511 169.713 21.3222ZM169.471 30.1462C169.103 30.8285 168.598 31.3504 167.951 31.7121C167.307 32.0697 166.57 32.2505 165.746 32.2505C164.922 32.2505 164.217 32.0697 163.582 31.7121C162.947 31.3504 162.439 30.8326 162.061 30.1462C161.684 29.464 161.496 28.6626 161.496 27.746C161.496 26.8295 161.684 26.0075 162.061 25.3335C162.439 24.6595 162.947 24.1416 163.582 23.7841C164.217 23.4265 164.951 23.2457 165.775 23.2457C166.598 23.2457 167.307 23.4265 167.955 23.7841C168.603 24.1457 169.107 24.6595 169.476 25.3335C169.844 26.0075 170.029 26.8131 170.029 27.746C170.029 28.679 169.844 29.464 169.476 30.1462H169.471Z" fill="white"/>
<path d="M180.004 14.9277H176.64V34.9472H180.004V14.9277Z" fill="white"/>
<path d="M25.4273 7.06836C15.2918 7.06836 7.0498 15.3375 7.0498 25.4972C7.0498 35.657 15.2959 43.9261 25.4273 43.9261C35.5587 43.9261 43.8047 35.657 43.8047 25.4972C43.8047 15.3375 35.5627 7.06836 25.4273 7.06836ZM25.4273 40.8807C16.9722 40.8807 10.0909 33.9801 10.0909 25.5014C10.0909 17.0226 16.9722 10.1179 25.4273 10.1179C33.8824 10.1179 40.7637 17.0185 40.7637 25.4972C40.7637 33.976 33.8824 40.8766 25.4273 40.8766V40.8807Z" fill="#08BDDC"/>
<path d="M25.427 47.6418C13.2505 47.6418 3.34863 37.7081 3.34863 25.5017C3.34863 13.2952 13.2546 3.35742 25.427 3.35742C37.5994 3.35742 47.5054 13.2911 47.5054 25.4976C47.5054 37.704 37.5994 47.6377 25.427 47.6377V47.6418ZM25.427 4.22051C13.7259 4.22051 4.20931 13.7679 4.20931 25.4976C4.20931 37.2273 13.73 46.7746 25.427 46.7746C37.124 46.7746 46.6447 37.2273 46.6447 25.4976C46.6447 13.7679 37.1281 4.22051 25.427 4.22051Z" fill="#08BDDC"/>
<path d="M25.4268 51C11.406 51 0 39.558 0 25.4979C0 11.4379 11.406 0 25.4268 0C39.4476 0 50.8536 11.4379 50.8536 25.4979C50.8536 39.558 39.4476 50.9959 25.4268 50.9959V51ZM25.4268 0.283585C11.5617 0.283585 0.282793 11.5941 0.282793 25.4979C0.282793 39.4018 11.5617 50.7164 25.4309 50.7164C39.3001 50.7164 50.579 39.4059 50.579 25.4979C50.579 11.59 39.296 0.283585 25.4268 0.283585Z" fill="#08BDDC"/>
<path d="M25.4019 14.0977L16.373 34.2116H19.5698L21.2256 30.336L25.3937 20.5667L29.5783 30.336L31.2381 34.2116H34.48L25.4019 14.0977Z" fill="#08BDDC"/>
</g>
<defs>
<clipPath id="clip0_1960_12098">
<rect width="180" height="51" fill="white"/>
</clipPath>
</defs>
</svg>
    