<svg width="22" height="18" viewBox="0 0 22 18" fill="none" xmlns="http://www.w3.org/2000/svg">
<path d="M17.735 0.342276L21.8598 5.84199C21.9601 5.9709 22.0066 6.11949 21.9995 6.28777C21.9923 6.45605 21.9314 6.60106 21.8168 6.7228L11.5049 17.7222C11.376 17.8654 11.2077 17.9371 11.0001 17.9371C10.7924 17.9371 10.6241 17.8654 10.4952 17.7222L0.183322 6.72281C0.0687464 6.60106 0.00787766 6.45605 0.000716151 6.28777C-0.00644536 6.11949 0.0401044 5.9709 0.140366 5.84199L4.26513 0.342289C4.39402 0.156088 4.57663 0.0629883 4.81294 0.0629883H17.1872C17.4235 0.0629883 17.6061 0.156076 17.735 0.342276Z" fill="url(#paint0_linear_3745_33583)"/>
<defs>
<linearGradient id="paint0_linear_3745_33583" x1="0" y1="0.0629883" x2="17.4953" y2="21.597" gradientUnits="userSpaceOnUse">
<stop stop-color="#F4F4F4"/>
<stop offset="1" stop-color="#ADADAD"/>
</linearGradient>
</defs>
</svg>
