<svg width="18" height="18" viewBox="0 0 18 18" fill="none" xmlns="http://www.w3.org/2000/svg">
<path d="M11.4994 8.16669H9.83269V4.83335C9.83269 4.61234 9.74489 4.40038 9.58861 4.2441C9.43233 4.08782 9.22037 4.00002 8.99935 4.00002C8.77834 4.00002 8.56638 4.08782 8.4101 4.2441C8.25382 4.40038 8.16602 4.61234 8.16602 4.83335V9.00002C8.16602 9.22103 8.25382 9.433 8.4101 9.58928C8.56638 9.74556 8.77834 9.83335 8.99935 9.83335H11.4994C11.7204 9.83335 11.9323 9.74556 12.0886 9.58928C12.2449 9.433 12.3327 9.22103 12.3327 9.00002C12.3327 8.77901 12.2449 8.56705 12.0886 8.41077C11.9323 8.25448 11.7204 8.16669 11.4994 8.16669ZM8.99935 0.666687C7.35118 0.666687 5.74001 1.15543 4.3696 2.07111C2.99919 2.98679 1.93109 4.28827 1.30036 5.81099C0.669626 7.33371 0.504599 9.00926 0.826142 10.6258C1.14769 12.2423 1.94136 13.7271 3.1068 14.8926C4.27223 16.058 5.75709 16.8517 7.3736 17.1732C8.99011 17.4948 10.6657 17.3297 12.1884 16.699C13.7111 16.0683 15.0126 15.0002 15.9283 13.6298C16.8439 12.2594 17.3327 10.6482 17.3327 9.00002C17.3302 6.79064 16.4515 4.67245 14.8892 3.11018C13.3269 1.54791 11.2087 0.669144 8.99935 0.666687V0.666687ZM8.99935 15.6667C7.68081 15.6667 6.39188 15.2757 5.29555 14.5432C4.19922 13.8106 3.34474 12.7694 2.84016 11.5512C2.33557 10.3331 2.20355 8.99263 2.46078 7.69942C2.71802 6.40621 3.35296 5.21833 4.28531 4.28598C5.21766 3.35363 6.40554 2.71869 7.69875 2.46145C8.99196 2.20422 10.3324 2.33624 11.5506 2.84082C12.7687 3.34541 13.8099 4.19989 14.5425 5.29622C15.275 6.39255 15.666 7.68148 15.666 9.00002C15.664 10.7675 14.961 12.462 13.7112 13.7118C12.4614 14.9616 10.7668 15.6647 8.99935 15.6667V15.6667Z" fill="#F17400"/>
</svg>
