<svg width="18" height="18" viewBox="0 0 18 18" fill="none" xmlns="http://www.w3.org/2000/svg">
<path d="M8.99935 0.666687C4.41602 0.666687 0.666016 4.41669 0.666016 9.00002C0.666016 13.5834 4.41602 17.3334 8.99935 17.3334C13.5827 17.3334 17.3327 13.5834 17.3327 9.00002C17.3327 4.41669 13.5827 0.666687 8.99935 0.666687ZM12.4994 7.58335L8.49935 11.5834C8.16602 11.9167 7.66602 11.9167 7.33268 11.5834L5.49935 9.75002C5.16602 9.41669 5.16602 8.91669 5.49935 8.58335C5.83268 8.25002 6.33268 8.25002 6.66602 8.58335L7.91602 9.83335L11.3327 6.41669C11.666 6.08335 12.166 6.08335 12.4994 6.41669C12.8327 6.75002 12.8327 7.25002 12.4994 7.58335Z" fill="#15A2E9"/>
</svg>
